<?xml version="1.0" encoding="UTF-8" standalone="no"?>
<svg
   height="16"
   viewBox="0 -960 800 640"
   width="20"
   version="1.1"
   id="svg1"
   sodipodi:docname="favicon.svg"
   inkscape:version="1.3.2 (091e20ef0f, 2023-11-25, custom)"
   xmlns:inkscape="http://www.inkscape.org/namespaces/inkscape"
   xmlns:sodipodi="http://sodipodi.sourceforge.net/DTD/sodipodi-0.dtd"
   xmlns="http://www.w3.org/2000/svg"
   xmlns:svg="http://www.w3.org/2000/svg">
  <defs
     id="defs1" />
  <sodipodi:namedview
     id="namedview1"
     pagecolor="#ffffff"
     bordercolor="#000000"
     borderopacity="0.25"
     inkscape:showpageshadow="2"
     inkscape:pageopacity="0.0"
     inkscape:pagecheckerboard="0"
     inkscape:deskcolor="#d1d1d1"
     inkscape:zoom="33.541667"
     inkscape:cx="9.9875776"
     inkscape:cy="8.0049689"
     inkscape:window-width="1920"
     inkscape:window-height="1011"
     inkscape:window-x="0"
     inkscape:window-y="0"
     inkscape:window-maximized="1"
     inkscape:current-layer="svg1" />
  <rect
     style="fill:#000000;fill-opacity:1;stroke-width:46.188"
     id="rect1"
     width="640"
     x="80"
     y="-880"
     height="480" />
  <path
     d="M 80,-320 Q 47,-320 23.5,-343.5 0,-367 0,-400 V -880 Q 0,-913 23.5,-936.5 47,-960 80,-960 h 640 q 33,0 56.5,23.5 23.5,23.5 23.5,56.5 v 480 q 0,33 -23.5,56.5 Q 753,-320 720,-320 Z m 100,-200 h 46 v -240 h -36 l -70,50 24,36 36,-26 z m 124,0 h 156 v -40 h -94 l -2,-2 q 21,-20 34.5,-34 13.5,-14 21.5,-22 18,-18 27,-36 9,-18 9,-38 0,-29 -22,-48.5 -22,-19.5 -56,-19.5 -26,0 -47,15 -21,15 -29,39 l 40,16 q 5,-13 14.5,-20.5 9.5,-7.5 21.5,-7.5 15,0 24.5,8 9.5,8 9.5,20 0,11 -4,20.5 -4,9.5 -18,23.5 l -32,32 -54,54 z m 296,0 q 36,0 58,-20 22,-20 22,-52 0,-18 -10,-32 -10,-14 -28,-22 v -2 q 14,-8 22,-20.5 8,-12.5 8,-29.5 0,-27 -21,-44.5 -21,-17.5 -53,-17.5 -25,0 -46.5,14.5 Q 530,-731 524,-710 l 40,16 q 4,-12 13,-19 9,-7 21,-7 13,0 21.5,7.5 8.5,7.5 8.5,18.5 0,14 -10,22 -10,8 -26,8 h -18 v 40 h 20 q 20,0 31,8 11,8 11,22 0,13 -11,22.5 -11,9.5 -25,9.5 -17,0 -26,-7.5 -9,-7.5 -16,-26.5 l -40,16 q 7,29 28.5,44.5 21.5,15.5 53.5,15.5 z"
     id="path1"
     style="fill:#ffffff;fill-opacity:1" />
</svg>
